<svg width="30" height="30" viewBox="0 0 30 30" fill="none" xmlns="http://www.w3.org/2000/svg">
<path fill-rule="evenodd" clip-rule="evenodd" d="M10.1389 2.38671C10.1745 2.36737 10.2107 2.35758 10.2495 2.35719C10.3326 2.35641 10.4114 2.39702 10.4557 2.47526L11.6275 4.54143C12.5861 4.12551 13.6613 3.89206 14.7959 3.89206C15.9305 3.89206 17.0057 4.12551 17.9643 4.54143L19.1361 2.47526C19.1804 2.39702 19.2592 2.3564 19.3423 2.35719C19.3811 2.35755 19.4173 2.36737 19.4529 2.38671C19.57 2.45019 19.6085 2.58181 19.5435 2.69663L18.3867 4.74067C20.6122 5.87338 22.1154 8.02598 22.1184 10.4964H7.47339C7.4764 8.02598 8.97959 5.87338 11.2051 4.74067L10.0483 2.69663C9.98327 2.58181 10.0218 2.45019 10.1389 2.38671ZM10.8053 7.27664C10.8053 6.94962 11.082 6.67892 11.4163 6.67892C11.7507 6.67892 12.0274 6.94962 12.0274 7.27664C12.0274 7.60366 11.7507 7.87436 11.4163 7.87436C11.082 7.87436 10.8053 7.60366 10.8053 7.27664ZM17.5645 7.27664C17.5645 6.94962 17.8413 6.67892 18.1756 6.67892C18.5099 6.67892 18.7866 6.94962 18.7866 7.27664C18.7866 7.60366 18.5099 7.87436 18.1756 7.87436C17.8413 7.87436 17.5645 7.60366 17.5645 7.27664Z" fill="white"/>
<path d="M7.47339 21.4447V11.0622H22.1184V21.4447C22.1184 22.4041 21.3289 23.1764 20.3481 23.1764H19.1739V26.7184C19.1739 27.6128 18.4463 28.3246 17.5319 28.3246C16.6175 28.3246 15.8899 27.6128 15.8899 26.7184V23.1764H13.7022V26.7184C13.7022 27.6128 12.9745 28.3246 12.0601 28.3246C11.1457 28.3246 10.4181 27.6128 10.4181 26.7184V23.1764H9.24366C8.26293 23.1764 7.47339 22.4041 7.47339 21.4447Z" fill="white"/>
<path d="M5.2204 10.7867C4.30598 10.7867 3.57837 11.4984 3.57837 12.3929V19.0834C3.57837 19.9778 4.30598 20.6896 5.2204 20.6896C6.13482 20.6896 6.86243 19.9778 6.86243 19.0834V12.3929C6.86243 11.4984 6.13482 10.7867 5.2204 10.7867Z" fill="white"/>
<path d="M24.3716 10.7867C23.4572 10.7867 22.7295 11.4984 22.7295 12.3929V19.0834C22.7295 19.9778 23.4572 20.6896 24.3716 20.6896C25.286 20.6896 26.0136 19.9778 26.0136 19.0834V12.3929C26.0136 11.4984 25.286 10.7867 24.3716 10.7867Z" fill="white"/>
</svg>
