<svg width="2500" height="2500" viewBox="0 0 2500 2500" fill="none" xmlns="http://www.w3.org/2000/svg">
<path d="M0 194C0 86.8568 86.8568 0 194 0H2306C2413.14 0 2500 86.8568 2500 194V2306C2500 2413.14 2413.14 2500 2306 2500H194C86.8568 2500 0 2413.14 0 2306V194Z" fill="#3F4044"/>
<path d="M240.39 678.602V443.451C240.39 437.466 235.537 432.613 229.552 432.613H158.376C152.39 432.613 147.537 427.76 147.537 421.774V373.838C147.537 367.853 152.39 363 158.376 363H404.905C410.89 363 415.743 367.853 415.743 373.838V421.801C415.743 427.787 410.89 432.64 404.905 432.64H333.728C327.743 432.64 322.89 437.492 322.89 443.478V678.602C322.89 684.588 318.037 689.441 312.052 689.441H251.201C245.216 689.441 240.363 684.588 240.363 678.602H240.39ZM905.134 689.441H844.284C838.298 689.441 833.445 684.588 833.445 678.602V373.838C833.445 367.853 838.298 363 844.284 363H989.198C1030.1 363 1059.94 372.194 1078.68 390.581C1097.42 408.968 1106.77 436.064 1106.77 471.814C1106.77 498.639 1100.06 521.583 1086.66 540.671C1073.26 559.759 1055.55 571.703 1033.55 576.502L1033.04 578.039C1041.64 583.539 1051.07 592.652 1061.4 605.377C1071.72 618.102 1081.94 631.933 1092.08 646.897C1097.23 654.499 1104.13 665.365 1109.69 674.208C1113.84 680.84 1109.07 689.441 1101.25 689.441H1028.99C1025.41 689.441 1022.04 687.661 1020.01 684.668L967.548 606.914C962.722 599.688 958.867 594.539 955.955 591.438C953.043 588.338 949.592 586.451 945.629 585.777C941.666 585.102 935.384 584.752 926.811 584.752C920.825 584.752 915.972 589.605 915.972 595.59V678.629C915.972 684.615 911.119 689.467 905.134 689.467V689.441ZM975.798 430.051H926.811C920.825 430.051 915.972 434.904 915.972 440.89V506.889C915.972 512.875 920.825 517.728 926.811 517.728H975.798C992.999 517.728 1004.94 514.304 1011.63 507.402C1018.34 500.527 1021.69 489.365 1021.69 473.889C1021.69 458.414 1018.34 447.252 1011.63 440.377C1004.92 433.502 992.972 430.051 975.798 430.051ZM1619.4 689.441H1558.55C1552.57 689.441 1547.72 684.588 1547.72 678.602V373.838C1547.72 367.853 1552.57 363 1558.55 363H1619.4C1625.39 363 1630.24 367.853 1630.24 373.838V678.602C1630.24 684.588 1625.39 689.441 1619.4 689.441ZM2145.44 689.441H2084.59C2078.6 689.441 2073.75 684.588 2073.75 678.602V373.838C2073.75 367.853 2078.6 363 2084.59 363H2219.17C2251.82 363 2277.97 366.963 2297.57 374.863C2317.18 382.762 2331.28 395.676 2339.85 413.551C2348.45 431.426 2352.74 455.664 2352.74 486.264C2352.74 515.139 2348.42 538.622 2339.85 556.659C2331.25 574.696 2317.15 588.041 2297.57 596.615C2277.97 605.215 2251.85 609.502 2219.17 609.502H2167.08C2161.1 609.502 2156.25 614.355 2156.25 620.34V678.602C2156.25 684.588 2151.39 689.441 2145.41 689.441H2145.44ZM2205.77 430.564H2167.08C2161.1 430.564 2156.25 435.417 2156.25 441.402V531.127C2156.25 537.112 2161.1 541.965 2167.08 541.965H2205.77C2230.17 541.965 2246.51 537.84 2254.76 529.59C2263.01 521.34 2267.14 506.889 2267.14 486.264C2267.14 465.64 2263.01 452.483 2254.76 443.72C2246.51 434.958 2230.17 430.564 2205.77 430.564V430.564Z" fill="white"/>
<path d="M769.077 893.695V1114.31C769.077 1129.33 756.918 1141.49 741.901 1141.49H415.326C403.571 1141.49 394.027 1151.03 394.027 1162.79V1320.64L653.065 1300.64C673.852 1299.02 688.654 1320.48 679.73 1339.36L589.654 1529.97C580.73 1548.84 563.394 1562.32 542.931 1566.37L394 1595.62V1711.31C343.448 1744.9 261.784 1818.02 222.934 1896.39C378.902 1787.42 551.475 1710.36 734.568 1660.03C751.903 1655.25 769.05 1668.22 769.05 1686.21V1916.32C769.05 1928.15 761.421 1938.67 750.124 1942.2C624.179 1981.77 502.064 2036.8 390.818 2108.11C272.946 2182.85 119 2098.65 119 1959.05V893.695C119 878.678 131.159 866.518 146.177 866.518H741.901C756.918 866.518 769.077 878.678 769.077 893.695ZM2381.3 1298.35V1959.02C2381.3 2098.62 2227.33 2182.82 2109.43 2108.06C1960.79 2014.18 1796.16 1947.35 1624.84 1908.28C1612.49 1905.48 1603.73 1894.48 1603.73 1881.81V893.695C1603.73 878.678 1615.89 866.518 1630.9 866.518H1949.47C2187.97 866.518 2381.3 1059.85 2381.3 1298.35ZM2247.44 1883.85C2224.61 1811.84 2177.18 1746.87 2106.33 1696.8V1279.72C2106.33 1203.37 2044.43 1141.46 1968.08 1141.46H1895.82C1886.36 1141.46 1878.7 1149.15 1878.7 1158.58V1682.78C1878.7 1690.06 1883.31 1696.53 1890.21 1698.93C2017.79 1743.61 2139.74 1800.81 2247.47 1883.83L2247.44 1883.85ZM1472.21 1603.84C1312.36 1585.96 1135.44 1577.01 979.102 1619.72C1016.66 1575.59 1106.41 1538.7 1172.52 1524.23V893.695C1172.52 878.678 1160.36 866.518 1145.34 866.518H903.45C888.433 866.518 876.273 878.678 876.273 893.695V1882.94C876.273 1895.83 888.109 1905.42 900.727 1902.75C1088.2 1863.11 1275.59 1855.95 1465.72 1880.16C1482 1882.24 1496.4 1869.62 1496.4 1853.23V1630.91C1496.4 1617.05 1485.99 1605.4 1472.21 1603.87V1603.84Z" fill="white"/>
</svg>
