<svg width="24" height="24" viewBox="0 0 24 24" fill="none" xmlns="http://www.w3.org/2000/svg">
<path fill-rule="evenodd" clip-rule="evenodd" d="M13.8609 12.699C15.1234 10.655 16 8.42578 16 7C16 5.47301 15.5031 4.53789 14.8877 3.97114C14.2454 3.37957 13.2658 3 12 3C10.7342 3 9.75457 3.37957 9.11226 3.97114C8.49688 4.53789 8 5.47301 8 7C8 8.42578 8.87665 10.655 10.1391 12.699C10.7439 13.6782 11.3676 14.5006 11.8856 15.0506C11.9253 15.0928 11.9635 15.1324 12 15.1694C12.0365 15.1324 12.0747 15.0928 12.1144 15.0506C12.6324 14.5006 13.2561 13.6782 13.8609 12.699ZM11.4781 15.6132C11.4783 15.6122 11.4891 15.6054 11.5098 15.5955C11.4882 15.6092 11.4779 15.6141 11.4781 15.6132ZM12.4902 15.5955C12.5109 15.6054 12.5217 15.6122 12.5219 15.6132C12.5221 15.6141 12.5118 15.6092 12.4902 15.5955ZM12 17.5C13.5 17.5 18 11 18 7C18 3 15.3137 1 12 1C8.68629 1 6 3 6 7C6 11 10.5 17.5 12 17.5ZM7.37757 13.0897C6.76142 13.281 6.26122 13.7641 6.06143 14.4034L4.81143 18.4034C4.40897 19.6913 5.37111 21 6.72039 21H17.114C18.5104 21 19.477 19.6053 18.9867 18.2978L17.4867 14.2978C17.3101 13.827 16.9687 13.4521 16.5427 13.2286C16.1814 13.8532 15.8017 14.45 15.4192 15H15.614L17.114 19L6.72039 19L7.97039 15H8.58076C8.17006 14.4093 7.76251 13.7648 7.37757 13.0897ZM11 7C11 6.44772 11.4477 6 12 6C12.5523 6 13 6.44772 13 7C13 7.55228 12.5523 8 12 8C11.4477 8 11 7.55228 11 7ZM12 4C10.3431 4 9 5.34315 9 7C9 8.65685 10.3431 10 12 10C13.6569 10 15 8.65685 15 7C15 5.34315 13.6569 4 12 4Z" fill="#A9ABBC"/>
</svg>
