<svg width="24" height="24" viewBox="0 0 24 24" fill="none" xmlns="http://www.w3.org/2000/svg">
<path d="M4.5 7C4.5 6.44772 4.05228 6 3.5 6C2.94772 6 2.5 6.44772 2.5 7C2.5 7.72682 2.90516 8.46534 3.37125 9.07128C3.86934 9.71882 4.56713 10.3832 5.40841 10.9807C7.08891 12.1743 9.43844 13.168 12.1053 13.168C14.7798 13.168 17.0078 12.1685 18.5681 10.9547C19.3475 10.3485 19.9771 9.67605 20.4203 9.02316C20.842 8.40175 21.1727 7.68282 21.1727 7C21.1727 6.44772 20.725 6 20.1727 6C19.6204 6 19.1727 6.44772 19.1727 7C19.1727 7.09239 19.1 7.40706 18.7654 7.9C18.4522 8.36146 17.9726 8.88414 17.3402 9.37609C16.0769 10.3587 14.2712 11.168 12.1053 11.168C9.93162 11.168 7.97852 10.353 6.56651 9.35012C5.86153 8.84942 5.31559 8.31869 4.95652 7.85188C4.77703 7.61854 4.65525 7.41547 4.5816 7.25343C4.5452 7.17333 4.52373 7.1102 4.51187 7.06415C4.50109 7.0223 4.50009 7.00186 4.5 7Z" fill="#3E3F44"/>
<path d="M12.8357 15.0417C12.8357 14.4894 12.388 14.0417 11.8357 14.0417C11.2835 14.0417 10.8357 14.4894 10.8357 15.0417V16.8825C10.8357 17.4348 11.2835 17.8825 11.8357 17.8825C12.388 17.8825 12.8357 17.4348 12.8357 16.8825V15.0417Z" fill="#3E3F44"/>
<path d="M18.4899 12.5575C18.8804 12.1669 19.5136 12.1669 19.9041 12.5575L21.2058 13.8591C21.5963 14.2496 21.5963 14.8828 21.2058 15.2733C20.8152 15.6639 20.1821 15.6639 19.7915 15.2733L18.4899 13.9717C18.0994 13.5812 18.0994 12.948 18.4899 12.5575Z" fill="#3E3F44"/>
<path d="M5.93279 13.9717C6.32331 13.5812 6.32331 12.948 5.93279 12.5575C5.54226 12.1669 4.9091 12.1669 4.51857 12.5575L3.21692 13.8591C2.82639 14.2496 2.8264 14.8828 3.21692 15.2733C3.60744 15.6639 4.24061 15.6639 4.63113 15.2733L5.93279 13.9717Z" fill="#3E3F44"/>
</svg>
