<svg width="30" height="30" viewBox="0 0 30 30" fill="none" xmlns="http://www.w3.org/2000/svg">
<path d="M19.7924 1.7915C20.0232 3.33524 19.3866 4.84502 18.5489 5.91457C17.6515 7.06033 16.1052 7.94811 14.6111 7.9022C14.3383 6.42502 15.039 4.90515 15.8874 3.88058C16.8221 2.75181 18.4233 1.88561 19.7924 1.7915Z" fill="white"/>
<path d="M24.2912 23.5043C25.0639 22.3361 25.351 21.7462 25.9511 20.4237C21.5933 18.7863 20.8926 12.6632 25.2056 10.313C23.8892 8.68156 22.0419 7.73732 20.2985 7.73732C19.0402 7.73732 18.1782 8.06154 17.3947 8.35622C16.7421 8.60167 16.1441 8.82662 15.4168 8.82662C14.6315 8.82662 13.9357 8.58002 13.2068 8.32168C12.4051 8.03752 11.5632 7.73916 10.518 7.73916C8.55862 7.73916 6.47504 8.92256 5.15398 10.9451C3.29519 13.7911 3.60999 19.1444 6.62413 23.7058C7.70192 25.3368 9.1416 27.1711 11.0239 27.1881C11.8035 27.1951 12.3228 26.9651 12.8847 26.7161C13.5286 26.4309 14.2285 26.1208 15.4404 26.1139C16.6596 26.1073 17.3478 26.4209 17.983 26.7104C18.5304 26.9599 19.0384 27.1914 19.8129 27.1844C21.6948 27.1665 23.2139 25.1357 24.2912 23.5043Z" fill="white"/>
</svg>
