<svg width="132" height="154" viewBox="0 0 132 154" fill="none" xmlns="http://www.w3.org/2000/svg">
<path d="M0 0H132V148C132 151.314 129.314 154 126 154H6C2.68629 154 0 151.314 0 148V0Z" fill="#3F4044"/>
<path d="M34.5646 37.3196V29.9508C34.5646 29.7633 34.4125 29.6112 34.225 29.6112H31.9945C31.807 29.6112 31.6549 29.4591 31.6549 29.2716V27.7694C31.6549 27.5819 31.807 27.4298 31.9945 27.4298H39.7199C39.9074 27.4298 40.0595 27.5819 40.0595 27.7694V29.2724C40.0595 29.46 39.9074 29.612 39.7199 29.612H37.4895C37.3019 29.612 37.1498 29.7641 37.1498 29.9517V37.3196C37.1498 37.5072 36.9978 37.6593 36.8102 37.6593H34.9034C34.7158 37.6593 34.5637 37.5072 34.5637 37.3196H34.5646ZM55.3953 37.6593H53.4885C53.3009 37.6593 53.1488 37.5072 53.1488 37.3196V27.7694C53.1488 27.5819 53.3009 27.4298 53.4885 27.4298H58.0296C59.3112 27.4298 60.2465 27.7179 60.8336 28.2941C61.4208 28.8703 61.714 29.7193 61.714 30.8396C61.714 31.6802 61.5036 32.3992 61.0837 32.9974C60.6638 33.5955 60.1087 33.9698 59.4193 34.1202L59.4033 34.1683C59.6728 34.3407 59.9685 34.6263 60.2921 35.025C60.6157 35.4238 60.9359 35.8572 61.2535 36.3261C61.4149 36.5643 61.6312 36.9048 61.8052 37.1819C61.9353 37.3898 61.7858 37.6593 61.5408 37.6593H59.2766C59.1642 37.6593 59.0586 37.6035 58.9952 37.5097L57.3511 35.0732C57.1999 34.8468 57.0791 34.6854 56.9879 34.5882C56.8966 34.4911 56.7885 34.4319 56.6643 34.4108C56.5401 34.3897 56.3432 34.3787 56.0746 34.3787C55.887 34.3787 55.7349 34.5308 55.7349 34.7183V37.3205C55.7349 37.508 55.5829 37.6601 55.3953 37.6601V37.6593ZM57.6097 29.5309H56.0746C55.887 29.5309 55.7349 29.683 55.7349 29.8706V31.9388C55.7349 32.1263 55.887 32.2784 56.0746 32.2784H57.6097C58.1487 32.2784 58.523 32.1711 58.7325 31.9548C58.9428 31.7394 59.0476 31.3896 59.0476 30.9047C59.0476 30.4197 58.9428 30.07 58.7325 29.8545C58.5221 29.6391 58.1478 29.5309 57.6097 29.5309ZM77.778 37.6593H75.8712C75.6836 37.6593 75.5316 37.5072 75.5316 37.3196V27.7694C75.5316 27.5819 75.6836 27.4298 75.8712 27.4298H77.778C77.9656 27.4298 78.1176 27.5819 78.1176 27.7694V37.3196C78.1176 37.5072 77.9656 37.6593 77.778 37.6593ZM94.262 37.6593H92.3551C92.1676 37.6593 92.0155 37.5072 92.0155 37.3196V27.7694C92.0155 27.5819 92.1676 27.4298 92.3551 27.4298H96.5726C97.5958 27.4298 98.4153 27.554 99.0295 27.8015C99.6437 28.0491 100.086 28.4537 100.354 29.0139C100.624 29.574 100.758 30.3335 100.758 31.2925C100.758 32.1973 100.623 32.9332 100.354 33.4984C100.085 34.0636 99.6428 34.4818 99.0295 34.7504C98.4153 35.02 97.5966 35.1543 96.5726 35.1543H94.9404C94.7528 35.1543 94.6007 35.3064 94.6007 35.4939V37.3196C94.6007 37.5072 94.4487 37.6593 94.2611 37.6593H94.262ZM96.1527 29.547H94.9404C94.7528 29.547 94.6007 29.6991 94.6007 29.8866V32.6983C94.6007 32.8859 94.7528 33.0379 94.9404 33.0379H96.1527C96.9173 33.0379 97.4293 32.9087 97.6878 32.6501C97.9464 32.3916 98.0756 31.9388 98.0756 31.2925C98.0756 30.6461 97.9464 30.2339 97.6878 29.9593C97.4293 29.6847 96.9173 29.547 96.1527 29.547Z" fill="white"/>
<path d="M58.6427 95.1144L40.5121 118.178C39.2973 119.726 36.7368 117.756 38.1711 116.214L58.1671 94.7072C58.4218 94.4343 58.8901 94.8007 58.6436 95.1144H58.6427ZM94.0573 116.214L74.0613 94.7072C73.8065 94.4343 73.3382 94.8007 73.5848 95.1144L91.7154 118.178C92.9302 119.726 95.4907 117.756 94.0565 116.214H94.0573Z" fill="url(#paint0_linear_34_694)"/>
<path d="M66.0124 95.4008L65.236 120.331C65.1642 122.606 61.576 122.325 61.8794 120.055L65.1752 95.3433C65.233 94.9045 66.0271 94.9413 66.0133 95.4L66.0124 95.4008ZM70.6152 120.055L67.3194 95.3433C67.2616 94.9045 66.4675 94.9413 66.4813 95.4L67.2577 120.33C67.3296 122.605 70.9177 122.324 70.6144 120.054L70.6152 120.055Z" fill="url(#paint1_linear_34_694)"/>
<path d="M46.8841 87.0098C46.3645 86.6583 45.6751 86.6913 45.1919 87.0917L42.3008 89.486L45.1015 93.2929L37.5383 87.869C37.0399 87.531 36.3817 87.5463 35.8993 87.907L31.6573 91.082C31.0921 91.5044 30.7601 92.1684 30.7601 92.8731C30.7601 94.1361 31.8052 95.1491 33.0682 95.1094L51.7995 94.5154C52.2395 94.4706 52.3865 95.253 51.9363 95.3434L32.274 99.3505C31.3937 99.5313 30.7601 100.307 30.7601 101.207V109.962C30.7601 112.878 34.2147 114.416 36.3826 112.465C38.5505 110.514 57.0325 93.8759 57.0325 93.8759L46.885 87.0106L46.8841 87.0098Z" fill="url(#paint2_linear_34_694)"/>
<path d="M80.5168 95.3442C80.0676 95.252 80.2132 94.4713 80.6537 94.5162L99.3849 95.1102C100.648 95.1499 101.693 94.1377 101.693 92.8738C101.693 92.1684 101.361 91.5052 100.797 91.0827L96.5547 87.9078C96.0723 87.547 95.4141 87.5318 94.9157 87.8698L92.3034 89.6406L94.2643 93.445L87.2613 87.0925C86.778 86.692 86.0886 86.6591 85.569 87.0106L75.4215 93.8758L96.0714 112.465C98.2393 114.417 101.694 112.878 101.694 109.962V101.207C101.694 100.307 101.06 99.5313 100.179 99.3513L80.5168 95.3442Z" fill="url(#paint3_linear_34_694)"/>
<path d="M66.4163 77.849C59.9346 77.849 54.4414 82.0522 52.5312 87.869C52.3842 88.3176 52.5565 88.8093 52.9485 89.072L57.0663 91.8296C57.5251 92.1372 58.0658 92.3011 58.6175 92.3011H73.9423C74.5143 92.3011 75.0727 92.1253 75.5416 91.7967L79.8166 88.8042C80.2027 88.5339 80.3657 88.0388 80.2094 87.5944C78.2189 81.9195 72.7958 77.8482 66.4163 77.8482V77.849Z" fill="url(#paint4_linear_34_694)"/>
<path d="M51.1312 44.0599V50.9733C51.1312 51.4439 50.7502 51.8249 50.2796 51.8249H40.0459C39.6775 51.8249 39.3784 52.124 39.3784 52.4924V57.439L47.4958 56.8121C48.1472 56.7614 48.611 57.4339 48.3313 58.0253L45.5087 63.9984C45.229 64.5898 44.6858 65.0122 44.0446 65.139L39.3776 66.0556V69.6809C37.7935 70.7336 35.2344 73.0248 34.017 75.4808C38.9045 72.066 44.3123 69.6512 50.0498 68.074C50.593 67.9245 51.1303 68.3308 51.1303 68.8944V76.1052C51.1303 76.4761 50.8912 76.8056 50.5373 76.9162C46.5906 78.1565 42.7639 79.8808 39.2779 82.1155C35.5842 84.4574 30.7601 81.8189 30.7601 77.4443V44.0599C30.7601 43.5893 31.1411 43.2083 31.6117 43.2083H50.2796C50.7502 43.2083 51.1312 43.5893 51.1312 44.0599ZM101.653 56.7403V77.4434C101.653 81.8181 96.8276 84.4566 93.1331 82.1138C88.4751 79.1719 83.3164 77.0776 77.9477 75.8534C77.5608 75.7655 77.2862 75.4208 77.2862 75.0238V44.0599C77.2862 43.5893 77.6672 43.2083 78.1378 43.2083H88.1206C95.5942 43.2083 101.653 49.2667 101.653 56.7403ZM97.4579 75.088C96.7423 72.8314 95.2562 70.7953 93.0359 69.2264V56.1565C93.0359 53.7639 91.0962 51.8241 88.7035 51.8241H86.4393C86.1428 51.8241 85.9028 52.0649 85.9028 52.3606V68.7871C85.9028 69.0152 86.0473 69.2179 86.2636 69.2931C90.2615 70.6931 94.0829 72.4856 97.4587 75.0871L97.4579 75.088ZM73.165 66.3133C68.1556 65.753 62.6118 65.4725 57.7126 66.8109C58.8895 65.4279 61.702 64.2722 63.7736 63.8185V44.0599C63.7736 43.5893 63.3926 43.2083 62.922 43.2083H55.3419C54.8714 43.2083 54.4903 43.5893 54.4903 44.0599V75.0592C54.4903 75.4631 54.8612 75.7639 55.2566 75.6802C61.1314 74.438 67.0034 74.2135 72.9614 74.9722C73.4717 75.0373 73.9228 74.6419 73.9228 74.1282V67.1616C73.9228 66.7273 73.5967 66.3623 73.165 66.3142V66.3133Z" fill="white"/>
<path d="M46.746 87.3394L53.3686 91.9278C53.6552 92.1267 53.4967 92.5778 53.1502 92.5524L49.2446 92.2697C47.4937 92.1428 46.0834 90.7786 45.8937 89.0268L45.774 87.9216C45.7158 87.3893 46.3076 87.0356 46.7468 87.3394H46.746Z" fill="#D55C13"/>
<path d="M37.4418 88.305L42.4491 92.0249C42.7833 92.2727 42.6018 92.803 42.1862 92.7954L39.7618 92.7487C38.1891 92.719 36.8811 91.5277 36.7046 89.9639L36.574 88.804C36.5206 88.3296 37.0584 88.0199 37.4418 88.305Z" fill="#D55C13"/>
<path d="M85.708 87.3394L79.0854 91.9278C78.7988 92.1267 78.9573 92.5778 79.3038 92.5524L83.2094 92.2697C84.9603 92.1428 86.3706 90.7786 86.5603 89.0268L86.68 87.9216C86.7382 87.3893 86.1464 87.0356 85.7072 87.3394H85.708Z" fill="#D55C13"/>
<path d="M95.0645 88.0641L93.1991 89.3668C92.9806 89.5423 92.9152 89.8656 93.0452 90.1241L93.9871 92.0579C94.3376 92.7558 95.4493 92.7201 95.539 91.8469L95.8804 88.5733C95.9306 88.09 95.425 87.7745 95.0653 88.065L95.0645 88.0641Z" fill="#D55C13"/>
<defs>
<linearGradient id="paint0_linear_34_694" x1="66.1146" y1="120.99" x2="66.1146" y2="94.736" gradientUnits="userSpaceOnUse">
<stop stop-color="white"/>
<stop offset="1" stop-color="white" stop-opacity="0.3"/>
</linearGradient>
<linearGradient id="paint1_linear_34_694" x1="66.2473" y1="121.32" x2="66.2473" y2="97.0424" gradientUnits="userSpaceOnUse">
<stop stop-color="#EDAE00"/>
<stop offset="1" stop-color="#AB5200"/>
</linearGradient>
<linearGradient id="paint2_linear_34_694" x1="34.3178" y1="112.365" x2="46.5774" y2="87.7211" gradientUnits="userSpaceOnUse">
<stop stop-color="#FF7200"/>
<stop offset="1" stop-color="#853236"/>
</linearGradient>
<linearGradient id="paint3_linear_34_694" x1="102.222" y1="109.664" x2="84.8847" y2="88.4874" gradientUnits="userSpaceOnUse">
<stop stop-color="#FF7200"/>
<stop offset="1" stop-color="#853236"/>
</linearGradient>
<linearGradient id="paint4_linear_34_694" x1="66.3732" y1="77.9766" x2="66.3732" y2="92.1777" gradientUnits="userSpaceOnUse">
<stop stop-color="#FEFF5A"/>
<stop offset="1" stop-color="#FEC600"/>
</linearGradient>
</defs>
</svg>
