<svg width="24" height="24" viewBox="0 0 24 24" fill="none" xmlns="http://www.w3.org/2000/svg">
<path fill-rule="evenodd" clip-rule="evenodd" d="M7 4C4.23858 4 2 6.23858 2 9V15C2 17.7614 4.23858 20 7 20H17C19.7614 20 22 17.7614 22 15V9C22 6.23858 19.7614 4 17 4H7ZM5.65131 6.31953C6.05677 6.11512 6.51494 6 7 6H17C17.3772 6 17.7381 6.06961 18.0706 6.19669L14.2707 11.01C13.0897 12.5058 10.8315 12.5357 9.61137 11.0716L5.65131 6.31953ZM4.26072 7.77492C4.09318 8.14898 4 8.56361 4 9V15C4 16.6569 5.34315 18 7 18H17C18.6569 18 20 16.6569 20 15V9C20 8.45092 19.8525 7.93629 19.5949 7.49358L15.8404 12.2493C13.8722 14.7424 10.1084 14.7922 8.07492 12.352L4.26072 7.77492Z" fill="#A9ABBC"/>
</svg>
