<svg width="24" height="24" viewBox="0 0 24 24" fill="none" xmlns="http://www.w3.org/2000/svg">
<path fill-rule="evenodd" clip-rule="evenodd" d="M5.7325 4.26459C7.29713 2.93545 9.67533 3.2947 10.7776 5.0267C11.4906 6.14723 11.4822 7.58134 10.7559 8.69338L10.6595 8.84109C10.3886 9.25584 10.1563 9.69454 9.96546 10.1517L9.32828 11.6782C10.4894 13.0102 11.7526 14.2497 13.1063 15.3854L14.6205 14.7194C15.0739 14.52 15.5081 14.2794 15.9177 14.0008L16.0636 13.9015C17.1617 13.1544 18.5953 13.1188 19.7292 13.8105C21.4817 14.8798 21.8859 17.2508 20.5866 18.8403L19.9963 19.5624C19.287 20.4301 18.1705 20.766 17.1509 20.5231C17.0096 20.5102 16.8689 20.4668 16.7385 20.3906C16.4724 20.2817 16.2183 20.13 15.9864 19.9345L15.9784 19.9278C11.4609 17.1249 7.6202 13.3562 4.73236 8.89248L4.72548 8.88462C4.52563 8.65646 4.36913 8.40534 4.25525 8.14126C4.17661 8.01241 4.13058 7.87256 4.11494 7.73148C3.85286 6.71664 4.16752 5.59402 5.02171 4.8684L5.7325 4.26459ZM6.33399 7.68561C6.29573 7.62592 6.25764 7.5661 6.21974 7.50615L6.0563 7.24762C5.97119 6.9463 6.06179 6.60908 6.31656 6.39266L7.02734 5.78886C7.66712 5.24537 8.63955 5.39227 9.09025 6.10048C9.38183 6.55866 9.37837 7.14506 9.0814 7.59977L8.98493 7.74748C8.64727 8.26451 8.35768 8.81139 8.1198 9.38127L8.02279 9.61367L6.33399 7.68561ZM17.598 18.573C17.9008 18.6524 18.2363 18.5554 18.4478 18.2966L19.0381 17.5745C19.5694 16.9246 19.4041 15.9551 18.6875 15.5179C18.2239 15.235 17.6377 15.2495 17.1886 15.5551L17.0428 15.6543C16.5322 16.0017 15.9909 16.3016 15.4257 16.5502L15.1951 16.6516L17.1548 18.3036C17.2152 18.3407 17.2757 18.3777 17.3364 18.4144L17.598 18.573Z" fill="#A9ABBC"/>
</svg>
