<svg width="24" height="24" viewBox="0 0 24 24" fill="none" xmlns="http://www.w3.org/2000/svg">
<path fill-rule="evenodd" clip-rule="evenodd" d="M16.2914 12.4517C16.2914 14.6608 14.5006 16.4517 12.2914 16.4517C10.0823 16.4517 8.29144 14.6608 8.29144 12.4517C8.29144 10.2425 10.0823 8.45166 12.2914 8.45166C14.5006 8.45166 16.2914 10.2425 16.2914 12.4517ZM14.2914 12.4517C14.2914 13.5562 13.396 14.4517 12.2914 14.4517C11.1869 14.4517 10.2914 13.5562 10.2914 12.4517C10.2914 11.3471 11.1869 10.4517 12.2914 10.4517C13.396 10.4517 14.2914 11.3471 14.2914 12.4517Z" fill="#3E3F44"/>
<path fill-rule="evenodd" clip-rule="evenodd" d="M22 12.4516C22 14.3871 18.129 18.9032 12.3226 18.9032C6.51613 18.9032 2 14.3871 2 12.4516C2 10.5161 5.87097 6 12.3226 6C18.7742 6 22 10.5161 22 12.4516ZM19.9932 12.4533C19.9956 12.4452 19.9971 12.44 19.9981 12.4375C19.9883 12.3733 19.9327 12.0921 19.6649 11.6301C19.3814 11.141 18.9267 10.569 18.2853 10.0239C17.0198 8.94816 15.0554 8 12.3226 8C9.57822 8 7.42085 8.95747 5.96483 10.0826C5.23216 10.6487 4.70145 11.2389 4.36975 11.7364C4.12513 12.1033 4.04235 12.3364 4.01433 12.4266C4.04488 12.5038 4.13628 12.7242 4.40472 13.0874C4.7845 13.6012 5.3818 14.2103 6.17265 14.7949C7.76026 15.9683 9.93398 16.9032 12.3226 16.9032C14.6945 16.9032 16.6814 15.9812 18.0803 14.8487C18.7807 14.2817 19.3002 13.6882 19.6292 13.1837C19.9022 12.7651 19.9742 12.5183 19.9932 12.4533Z" fill="#3E3F44"/>
</svg>
