<svg width="18" height="18" viewBox="0 0 18 18" fill="none" xmlns="http://www.w3.org/2000/svg">
<path fill-rule="evenodd" clip-rule="evenodd" d="M10 1.5C10 0.947715 9.55228 0.5 9 0.5C8.44771 0.5 8 0.947715 8 1.5V11.7962L5.6585 9.74742C5.24287 9.38374 4.6111 9.42586 4.24742 9.8415C3.88374 10.2571 3.92586 10.8889 4.34149 11.2526L8.34149 14.7526L9 15.3288L9.6585 14.7526L13.6585 11.2526C14.0741 10.8889 14.1163 10.2571 13.7526 9.8415C13.3889 9.42586 12.7571 9.38374 12.3415 9.74742L10 11.7962V1.5ZM2 13C2 12.4477 1.55228 12 0.999999 12C0.447714 12 -1.00909e-06 12.4477 -1.00909e-06 13V15L-8.16165e-06 15.0544C-9.14889e-05 15.4785 -0.000172432 15.8906 0.0455279 16.2305C0.0970481 16.6137 0.22257 17.051 0.585785 17.4142C0.949001 17.7774 1.38628 17.903 1.76948 17.9545C2.10938 18.0002 2.52148 18.0001 2.94552 18H2.94559L3 18H15L15.0544 18H15.0545C15.4785 18.0001 15.8906 18.0002 16.2305 17.9545C16.6137 17.903 17.051 17.7774 17.4142 17.4142C17.7774 17.051 17.903 16.6137 17.9545 16.2305C18.0002 15.8906 18.0001 15.4785 18 15.0544L18 15V13C18 12.4477 17.5523 12 17 12C16.4477 12 16 12.4477 16 13V15C16 15.4997 15.9979 15.7738 15.9723 15.964L15.9713 15.9713L15.964 15.9723C15.7738 15.9979 15.4997 16 15 16H3C2.50032 16 2.22617 15.9979 2.03597 15.9723L2.02869 15.9713L2.02769 15.964C2.00212 15.7738 2 15.4997 2 15V13Z" fill="#A9ABBC"/>
</svg>
